<?xml version="1.0" encoding="UTF-8"?><svg id="Layer_1" xmlns="http://www.w3.org/2000/svg" xmlns:xlink="http://www.w3.org/1999/xlink" viewBox="0 0 850.39 850.39"><defs><style>.cls-1{fill:#fff;}.cls-2{clip-path:url(#clippath);}</style><clipPath id="clippath"><path class="cls-1" d="M342.16,368.24c-2.61.1-5.22.19-7.72.03l22.04,4.39c55.51,15.71,79.72,81.48,49.15,129.37-1.37,2.15-4.52,2.08-6,0-15.28-21.52-37.99-36.94-65.18-38.23l15.08-4.85c47.52-22.11,21.31-76.42-34.24-73.08-40.69,2.45-72.9,36.76-74.74,77.48-3.12,68.94,70,121.33,137.46,91.78,3.8-1.66,17.15-8.62,18.45-12.16,1.16-3.16-1.33-1.65-2.3-2.48-3.66-3.1-6.9-6.85-10.07-10.51-1.14-1.31-3.02-1.54-4.5-.65-30.65,18.27-67.86,13.63-94.31-10.32-29.72-26.91-37.54-78.12-10.16-109.43,14.86-17,53.96-30.12,66.59-4.51,11.33,22.96-3.39,45.75-23.85,55.85-2.76,1.36-2.88,5.31-.05,6.52,10.72,4.55,20.53,10.68,29.63,18.15,30.73,25.18,40.75,56.96,80.34,73.62,19.69,8.29,46.41,11.76,67.61,9.44,1.39-.15,2.86-.2,3.21-1.88-23.76-1.07-46.71-6.91-64.93-22.71-5.31-4.61-24.59-25.96-26.88-31.57-.17-.43-.24-1.51.45-1.37,8.4,5.57,8.52,15.29,16.39,2.48,35.39-57.64-5.85-139.32-72.97-145.31-1.22-.11-2.48-.15-3.74-.15-1.57,0-3.17.06-4.77.12"/></clipPath></defs><path class="cls-1" d="M342.16,368.24c-2.61.1-5.22.19-7.72.03l22.04,4.39c55.51,15.71,79.72,81.48,49.15,129.37-1.37,2.15-4.52,2.08-6,0-15.28-21.52-37.99-36.94-65.18-38.23l15.08-4.85c47.52-22.11,21.31-76.42-34.24-73.08-40.69,2.45-72.9,36.76-74.74,77.48-3.12,68.94,70,121.33,137.46,91.78,3.8-1.66,17.15-8.62,18.45-12.16,1.16-3.16-1.33-1.65-2.3-2.48-3.66-3.1-6.9-6.85-10.07-10.51-1.14-1.31-3.02-1.54-4.5-.65-30.65,18.27-67.86,13.63-94.31-10.32-29.72-26.91-37.54-78.12-10.16-109.43,14.86-17,53.96-30.12,66.59-4.51,11.33,22.96-3.39,45.75-23.85,55.85-2.76,1.36-2.88,5.31-.05,6.52,10.72,4.55,20.53,10.68,29.63,18.15,30.73,25.18,40.75,56.96,80.34,73.62,19.69,8.29,46.41,11.76,67.61,9.44,1.39-.15,2.86-.2,3.21-1.88-23.76-1.07-46.71-6.91-64.93-22.71-5.31-4.61-24.59-25.96-26.88-31.57-.17-.43-.24-1.51.45-1.37,8.4,5.57,8.52,15.29,16.39,2.48,35.39-57.64-5.85-139.32-72.97-145.31-1.22-.11-2.48-.15-3.74-.15-1.57,0-3.17.06-4.77.12"/><g class="cls-2"><rect class="cls-1" x="64.23" y="290.83" width="560.66" height="461.94" transform="translate(-277.9 462.31) rotate(-51.1)"/></g><path class="cls-1" d="M346.47,269.6c71.57,0,139.96,21.77,198.22,63.01v5.11c.18,89.83.39,201.62-29.94,265.14-11.23,23.51-42.99,57.1-82.88,87.67-40.36,30.94-73.52,47.12-85.41,47.12s-45.03-16.19-85.4-47.12c-39.89-30.58-71.65-64.17-82.87-87.67-30.34-63.54-30.13-175.36-29.96-265.21v-5.05c58.27-41.25,126.67-63.01,198.23-63.01M346.47,257.05c-74.03,0-148.06,23.05-210.75,69.13-.12,94.77-1.71,213.22,31.17,282.09,27.06,56.68,143.9,141.93,179.58,141.93s152.52-85.25,179.61-141.93c32.88-68.86,31.28-187.32,31.16-282.09-62.7-46.09-136.73-69.13-210.76-69.13"/><path class="cls-1" d="M346.47,293.85c61.51,0,120.26,19.52,170.02,56.48l.02,7.67c.14,76.76.32,172.29-25.38,227.44-22.43,48.11-117.94,117.83-144.66,117.83s-122.24-69.72-144.65-117.82c-25.7-55.17-25.53-150.72-25.39-227.5v-7.61c49.78-36.96,108.52-56.48,170.03-56.48M346.47,289.66c-61.19,0-122.38,19.52-174.2,58.56-.1,80.29-1.42,180.63,25.76,238.97,22.37,48.02,118.94,120.24,148.44,120.24s126.07-72.22,148.45-120.24c27.18-58.34,25.85-158.68,25.75-238.97-51.82-39.04-113.01-58.56-174.2-58.56"/><path class="cls-1" d="M419.18,240.97c6.63-33.47,33.42-77.88,48.86-83.48-18.71-5.18-37.92-2.06-37.92,25.03,0-12.76-19.11-21.58-26-14.68,4.37,0,11.67,5.65,11.67,21.12,0,12.53-11.77,23.02-23.63,23.02-10.25,0-23.57-8.68-23.57-23.43,0-15.94,13.91-29.1,27.82-24.65-6.39-15.13-30.8-25.21-37.45-1.84,0-21.78,25.5-32.14-12.47-61.88-37.98,29.74-12.48,40.1-12.48,61.88-6.65-23.37-31.05-13.29-37.45,1.84,13.91-4.45,27.82,8.71,27.82,24.65,0,14.75-13.32,23.43-23.56,23.43-11.86,0-23.64-10.49-23.64-23.02,0-15.48,7.3-21.12,11.67-21.12-6.9-6.9-26.02,1.92-26.02,14.68,0-27.09-19.19-30.22-37.92-25.03,15.46,5.6,42.25,50.01,48.88,83.48,47.95-9.99,97.45-9.99,145.4,0"/></svg>